<?xml version="1.0" standalone="no"?>
<!DOCTYPE svg PUBLIC "-//W3C//DTD SVG 20010904//EN"
 "http://www.w3.org/TR/2001/REC-SVG-20010904/DTD/svg10.dtd">
<svg version="1.0" xmlns="http://www.w3.org/2000/svg"
 width="986.000000pt" height="986.000000pt" viewBox="0 0 986.000000 986.000000"
 preserveAspectRatio="xMidYMid meet">
<metadata>
Created by potrace 1.14, written by Peter Selinger 2001-2017
</metadata>
<g transform="translate(0.000000,986.000000) scale(0.100000,-0.100000)"
fill="#000000" stroke="none">
<path d="M8679 9321 c-14 -14 -61 -57 -105 -94 -43 -38 -99 -87 -124 -110 -25
-23 -86 -78 -135 -122 -49 -44 -100 -91 -114 -104 -14 -12 -68 -62 -120 -110
-52 -47 -133 -122 -179 -166 -94 -88 -96 -91 -338 -320 -93 -88 -349 -340
-569 -560 -340 -340 -473 -477 -755 -775 -32 -33 -187 -201 -250 -270 -108
-118 -229 -252 -321 -355 -273 -306 -716 -838 -898 -1080 -17 -22 -39 -50 -51
-62 -11 -12 -20 -25 -20 -28 0 -4 -20 -31 -45 -59 -6 -6 -28 -36 -50 -66 -22
-30 -43 -59 -48 -65 -35 -45 -177 -241 -206 -285 -20 -30 -41 -59 -48 -65 -9
-8 -326 -487 -370 -560 -63 -103 -223 -377 -223 -381 0 -2 -11 -22 -25 -44
-14 -22 -23 -40 -20 -40 2 0 -6 -15 -18 -34 -12 -18 -27 -41 -32 -51 -9 -14
-17 -8 -62 47 -29 34 -65 77 -80 94 -15 18 -37 42 -48 55 -61 71 -170 195
-176 199 -3 3 -25 28 -49 55 -24 28 -84 94 -134 149 -50 54 -102 110 -115 125
-214 234 -733 759 -980 991 -79 74 -158 149 -176 165 -17 17 -65 59 -106 95
-41 36 -81 72 -89 80 -8 9 -78 70 -155 135 -77 66 -143 124 -146 129 -4 4 -36
-34 -72 -85 -36 -52 -71 -100 -78 -108 -7 -8 -28 -37 -48 -65 -19 -28 -39 -56
-45 -63 -6 -6 -21 -27 -34 -45 -25 -35 -293 -392 -315 -418 -6 -9 -25 -33 -41
-55 -17 -22 -33 -42 -36 -45 -3 -3 -48 -59 -100 -125 -94 -120 -107 -136 -145
-180 -11 -13 -36 -43 -57 -67 -41 -49 -206 -237 -222 -254 -101 -105 -110
-117 -95 -128 26 -18 80 -60 92 -71 7 -5 59 -48 117 -94 58 -47 107 -88 110
-91 3 -3 14 -13 26 -21 12 -8 42 -32 66 -54 25 -22 65 -56 89 -75 41 -33 181
-153 205 -175 6 -5 33 -29 61 -52 27 -24 61 -53 75 -65 13 -13 53 -48 89 -79
35 -31 76 -67 90 -80 14 -13 48 -44 75 -68 55 -49 210 -191 258 -236 18 -16
90 -84 161 -150 168 -155 884 -871 1045 -1043 69 -74 145 -155 170 -182 53
-56 171 -186 197 -216 10 -11 52 -58 93 -104 41 -46 80 -88 85 -94 17 -18 138
-158 165 -190 14 -16 32 -37 40 -46 12 -13 114 -134 282 -335 9 -11 25 -30 35
-41 10 -12 29 -36 43 -54 39 -51 60 -74 64 -69 2 2 44 67 94 144 50 77 98 147
107 156 8 9 15 19 15 23 0 5 173 265 212 318 7 10 38 54 68 98 53 77 323 463
354 505 8 11 42 58 75 105 33 47 64 90 68 95 5 6 33 44 62 85 132 182 247 335
254 338 4 2 7 10 7 17 0 7 3 15 8 17 4 2 54 66 111 143 57 77 107 142 110 145
3 3 11 12 16 21 12 20 223 298 242 319 7 8 32 40 56 70 23 30 45 57 49 58 5 2
8 10 8 17 0 7 3 15 8 17 4 2 32 35 62 73 30 39 57 72 60 75 3 3 19 23 36 45
16 22 34 45 39 51 6 7 21 26 35 44 14 18 60 75 103 128 43 54 84 104 91 113
47 58 235 289 253 309 11 14 63 75 113 135 51 61 111 133 135 160 49 58 216
251 240 279 6 6 41 47 80 91 38 44 72 82 75 85 3 3 39 43 80 90 41 47 77 87
80 90 3 3 28 30 55 60 509 562 975 1033 1455 1470 15 14 49 45 77 70 27 25 73
65 102 90 30 25 59 50 65 56 6 5 45 39 86 74 41 35 77 67 80 70 3 3 30 25 60
50 30 24 62 51 71 60 9 8 31 26 49 40 37 27 89 69 106 85 6 5 26 21 44 35 18
14 86 66 151 115 65 50 160 121 212 158 l95 69 -117 156 c-110 149 -143 194
-166 231 -5 9 -13 18 -16 21 -25 20 -408 617 -475 740 -10 19 -22 37 -26 38
-5 2 -8 9 -8 17 0 7 -7 18 -15 25 -9 7 -13 15 -10 18 3 3 1 10 -4 16 -13 16
-74 126 -132 241 -28 55 -54 107 -59 115 -24 42 -100 213 -100 224 0 30 -25
33 -51 7z"/>
</g>
</svg>
