<?xml version="1.0" standalone="no"?>
<!DOCTYPE svg PUBLIC "-//W3C//DTD SVG 20010904//EN"
 "http://www.w3.org/TR/2001/REC-SVG-20010904/DTD/svg10.dtd">
<svg version="1.0" xmlns="http://www.w3.org/2000/svg"
 width="180.000000pt" height="180.000000pt" viewBox="0 0 180.000000 180.000000"
 preserveAspectRatio="xMidYMid meet">
<metadata>
Created by potrace 1.14, written by Peter Selinger 2001-2017
</metadata>
<g transform="translate(0.000000,180.000000) scale(0.100000,-0.100000)"
fill="#000000" stroke="none">
<path d="M610 1435 l0 -355 -95 0 -95 0 0 -120 0 -120 -32 0 c-48 -1 -109 -32
-168 -86 -68 -64 -80 -91 -87 -197 -6 -85 16 -152 72 -215 39 -45 121 -92 162
-92 51 0 53 -4 53 -133 l0 -120 538 6 c295 4 538 7 539 7 2 0 2 241 1 535 l-2
535 -93 0 -93 0 0 355 0 355 -350 0 -350 0 0 -355z"/>
</g>
</svg>
