<?xml version="1.0" standalone="no"?>
<!DOCTYPE svg PUBLIC "-//W3C//DTD SVG 20010904//EN"
 "http://www.w3.org/TR/2001/REC-SVG-20010904/DTD/svg10.dtd">
<svg version="1.0" xmlns="http://www.w3.org/2000/svg"
 width="150.000000pt" height="150.000000pt" viewBox="0 0 150.000000 150.000000"
 preserveAspectRatio="xMidYMid meet">
<metadata>
Created by potrace 1.14, written by Peter Selinger 2001-2017
</metadata>
<g transform="translate(0.000000,150.000000) scale(0.100000,-0.100000)"
fill="#000000" stroke="none">
<path d="M1002 1470 c-29 -7 -46 -17 -88 -55 -6 -6 -23 -30 -38 -54 -32 -51
-41 -48 -45 12 -1 14 -13 29 -30 40 -88 52 -203 -24 -196 -128 2 -38 -2 -49
-36 -87 -21 -24 -56 -71 -76 -105 -21 -35 -42 -63 -46 -63 -6 0 -67 122 -67
135 0 2 21 5 48 7 45 3 47 5 47 32 0 28 -10 39 -47 50 -15 4 -15 8 -1 54 9 27
13 57 10 66 -9 24 -43 19 -66 -10 l-20 -25 -16 30 c-17 35 -57 50 -80 31 -17
-14 -13 -40 14 -80 10 -16 16 -47 17 -90 0 -51 8 -82 34 -145 19 -44 35 -82
35 -85 1 -3 10 -25 21 -50 27 -65 25 -83 -14 -96 -18 -5 -38 -19 -46 -30 -14
-20 -15 -67 -2 -95 4 -9 1 -23 -6 -31 -50 -54 -61 -70 -68 -101 -6 -28 -3 -40
14 -61 11 -15 30 -29 41 -30 25 -4 22 -18 -13 -64 -20 -26 -27 -48 -29 -88 -1
-49 1 -56 34 -89 19 -19 42 -36 51 -36 61 -5 67 -3 78 20 16 31 2 62 -37 85
-16 10 -27 22 -24 27 9 14 18 11 51 -20 82 -77 239 -111 337 -72 16 6 27 7 27
1 0 -13 -31 -28 -71 -35 -112 -18 -140 -27 -155 -50 -15 -23 -14 -26 5 -54 17
-24 19 -34 11 -56 -6 -15 -8 -31 -4 -36 16 -27 61 10 70 57 7 38 13 43 59 48
129 13 199 51 211 112 5 28 2 42 -15 65 -17 23 -19 33 -11 49 14 25 25 19 46
-25 32 -69 121 -79 155 -17 28 50 14 90 -38 111 -40 16 -42 27 -5 36 50 11 77
42 77 90 0 34 -6 50 -29 74 -15 16 -25 34 -22 39 9 15 55 24 73 13 22 -12 74
4 96 30 23 28 22 71 -3 99 l-20 23 39 19 c27 13 46 32 60 61 11 23 31 55 45
71 37 42 31 96 -12 96 -8 0 -25 9 -39 20 -28 22 -53 13 -53 -20 0 -11 -10 -20
-30 -23 -36 -8 -39 -32 -9 -71 27 -34 18 -43 -50 -50 -39 -5 -67 -15 -102 -41
-45 -32 -76 -45 -66 -27 8 12 20 172 21 272 1 132 29 183 79 142 9 -8 17 -21
17 -29 0 -27 31 -26 61 3 22 21 29 37 29 65 0 96 -88 161 -188 139z m-378
-340 c64 -24 42 -98 -28 -96 -42 2 -49 7 -51 43 -1 20 6 33 24 45 31 21 24 20
55 8z m251 -132 c11 -29 11 -33 -11 -55 -22 -22 -26 -23 -40 -9 -8 9 -24 16
-35 16 -10 0 -19 3 -20 8 0 4 -3 19 -5 33 -5 28 8 44 41 51 30 7 55 -10 70
-44z"/>
</g>
</svg>
